<svg xmlns="http://www.w3.org/2000/svg" viewBox="0 0 1201.48 196.4"><defs><style>.cls-1{fill:#495464;}.cls-2{fill:#68b0ab;}</style></defs><title>logo</title><g id="Calque_2" data-name="Calque 2"><g id="Calque_1-2" data-name="Calque 1"><path class="cls-1" d="M351.19,69.24a54.5,54.5,0,1,0,54.49,54.5A54.5,54.5,0,0,0,351.19,69.24Zm0,90.83a36.33,36.33,0,1,1,36.33-36.33A36.34,36.34,0,0,1,351.19,160.07Z"/><path class="cls-2" d="M1147,69.24a54.5,54.5,0,1,0,54.49,54.5A54.5,54.5,0,0,0,1147,69.24Zm0,90.83a36.33,36.33,0,1,1,36.33-36.33A36.33,36.33,0,0,1,1147,160.07Z"/><path class="cls-1" d="M36.33,32.91v109A36.33,36.33,0,0,1,0,178.23V196.4a54.49,54.49,0,0,0,54.46-53.09h0V32.91Z"/><path class="cls-1" d="M194.62,123.74a53.71,53.71,0,0,0-.69-8.65,54.49,54.49,0,1,0-15.27,47.18l-12.84-12.84a36.34,36.34,0,0,1-60.76-16.18h88.73A54.17,54.17,0,0,0,194.62,123.74Zm-89.78-8.65a36.34,36.34,0,0,1,70.58,0Z"/><path class="cls-1" d="M252.58,69.24H211.92v109h18.17V87.41h22.49a13.84,13.84,0,0,1,13.84,13.84h18.16A32,32,0,0,0,252.58,69.24Z"/><path class="cls-1" d="M563.11,69.24A54.43,54.43,0,0,0,517.7,93.62a54.48,54.48,0,0,0-99.87,28.57h0v56H436V123.74a36.33,36.33,0,1,1,72.66,0v54.49h18.16V123.74a36.33,36.33,0,0,1,72.66,0v54.49h18.17V123.74A54.5,54.5,0,0,0,563.11,69.24Z"/><path class="cls-2" d="M1076.91,123.17A54.49,54.49,0,0,0,977,93.58c-1-1.44-2-2.81-3.09-4.15l-.36-.46c-.46-.55-.94-1.1-1.42-1.64l-.41-.45c-.52-.56-1-1.11-1.58-1.65l-.09-.09a54.46,54.46,0,0,0-83.89,8.46,54.48,54.48,0,0,0-90.81,0,54.49,54.49,0,0,0-99.91,30.12v54.49h18.16V123.74a36.33,36.33,0,1,1,72.66,0v54.49h18.17V123.74a36.33,36.33,0,0,1,72.66,0v54.49h18.16V123.74a36.33,36.33,0,1,1,72.66,0v54.49H986.1V123.7h0a36.33,36.33,0,0,1,72.66,0v54.53h18.16V123.17Z"/><rect class="cls-2" x="643.99" y="69.24" width="18.16" height="108.99"/><rect class="cls-2" x="643.99" y="34.96" width="18.16" height="18.16"/><rect class="cls-2" x="36.33" width="18.16" height="18.16"/></g></g></svg>