<svg xmlns="http://www.w3.org/2000/svg" viewBox="0 0 663.73 111.49"><defs><style>.cls-1{fill:#495464;}.cls-2{fill:#68b0ab;}</style></defs><title>logo-nav_2</title><g id="Calque_2" data-name="Calque 2"><g id="Calque_1-2" data-name="Calque 1"><path class="cls-1" d="M194,41.25a30.11,30.11,0,1,0,30.1,30.11A30.11,30.11,0,0,0,194,41.25Zm0,50.18a20.07,20.07,0,1,1,20.07-20.07A20.07,20.07,0,0,1,194,91.43Z"/><path class="cls-2" d="M633.63,41.25a30.11,30.11,0,1,0,30.1,30.11A30.11,30.11,0,0,0,633.63,41.25Zm0,50.18A20.07,20.07,0,1,1,653.7,71.36,20.07,20.07,0,0,1,633.63,91.43Z"/><path class="cls-1" d="M20.07,21.18V81.39A20.08,20.08,0,0,1,0,101.46v10A30.09,30.09,0,0,0,30.08,82.17h0v-61Z"/><path class="cls-1" d="M107.52,71.36a28.91,28.91,0,0,0-.39-4.78A30.1,30.1,0,1,0,98.7,92.64l-7.1-7.09A20.07,20.07,0,0,1,58,76.61h49A30.24,30.24,0,0,0,107.52,71.36Zm-49.6-4.78a20.07,20.07,0,0,1,39,0Z"/><path class="cls-1" d="M139.53,41.25H117.07v60.21h10V51.29h12.42a7.65,7.65,0,0,1,7.65,7.64h10A17.68,17.68,0,0,0,139.53,41.25Z"/><path class="cls-1" d="M311.08,41.25A30.08,30.08,0,0,0,286,54.72,30.1,30.1,0,0,0,230.82,70.5h0v31h10V71.36a20.07,20.07,0,1,1,40.14,0v30.1h10V71.36a20.07,20.07,0,0,1,40.14,0v30.1h10V71.36A30.1,30.1,0,0,0,311.08,41.25Z"/><path class="cls-2" d="M594.91,71A30.1,30.1,0,0,0,539.73,54.7c-.53-.8-1.1-1.56-1.7-2.3l-.2-.25c-.26-.31-.52-.61-.79-.91l-.23-.25c-.28-.31-.57-.61-.87-.91l-.05,0a30.08,30.08,0,0,0-46.34,4.68,30.1,30.1,0,0,0-50.17,0,30.1,30.1,0,0,0-55.19,16.64v30.1h10V71.36a20.07,20.07,0,1,1,40.13,0v30.1h10V71.36a20.07,20.07,0,1,1,40.14,0v30.1h10V71.36a20.07,20.07,0,0,1,40.14,0v30.1h10V71.33h0a20.07,20.07,0,0,1,40.14,0v30.13h10V71Z"/><rect class="cls-2" x="355.76" y="41.25" width="10.03" height="60.21"/><rect class="cls-2" x="355.76" y="22.31" width="10.03" height="10.03"/><path class="cls-2" d="M0,59.82A20.9,20.9,0,0,0,2,58l2-1.89c1.37-1.24,2.75-2.48,4.17-3.66S11.11,50.1,12.57,49s3-2.21,4.49-3.29A175.61,175.61,0,0,1,36.12,34.12l2.47-1.3L41.1,31.6c1.67-.8,3.34-1.64,5-2.42l5.11-2.25c1.69-.77,3.42-1.47,5.15-2.15l5.19-2.06c1.74-.66,3.5-1.26,5.25-1.89s3.5-1.27,5.27-1.85l5.32-1.68A349.12,349.12,0,0,1,120.77,6.91c3.66-.62,7.32-1.27,11-1.8l11-1.49c1.84-.27,3.69-.43,5.53-.62l5.54-.55,5.53-.55c1.85-.18,3.7-.28,5.55-.42a583.7,583.7,0,0,1,88.71.44,670.39,670.39,0,0,1,87.52,12.62c-29.4-1.91-58.68-3.79-87.94-4.52a874.28,874.28,0,0,0-87.52,1.74c-14.52,1.1-29,2.55-43.38,4.78S93.7,21.48,79.63,25.07l-5.28,1.37c-1.75.46-3.48,1-5.23,1.49s-3.49,1-5.23,1.53l-5.18,1.67c-3.48,1-6.86,2.38-10.3,3.55-1.71.62-3.39,1.3-5.09,2l-2.54,1-2.51,1.06c-1.67.71-3.37,1.38-5,2.14l-5,2.27L23.4,45.52l-4.84,2.55A190.42,190.42,0,0,0,0,59.82Z"/></g></g></svg>