<svg xmlns="http://www.w3.org/2000/svg" viewBox="0 0 321.06 279.58"><defs><style>.cls-1{fill:#68b0ab;}</style></defs><title>Favoris_false</title><g id="Calque_2" data-name="Calque 2"><g id="Calque_1-2" data-name="Calque 1"><path class="cls-1" d="M93.77,30a63.3,63.3,0,0,1,45,18.55c.1.1.2.19.29.29l20.79,20.91.07-.06,1,1,21.22-21.38.27-.28a63.77,63.77,0,0,1,90.06,90.32,65.34,65.34,0,0,1-5.61,5l-1.36,1.08-1.23,1.23L161.86,248.93a2.06,2.06,0,0,1-1.55.65,2.09,2.09,0,0,1-1.56-.65L69.69,159.88l.07-.07L48.84,139l-.29-.28A63.78,63.78,0,0,1,93.77,30m88.71,18.84h0M93.77,0a93.78,93.78,0,0,0-66.3,160.08l.22.22h0L137.53,270.15a32.22,32.22,0,0,0,45.55,0L285.4,167.82A93.77,93.77,0,1,0,161,27.92l-.22.23-.45-.46h0l-.22-.22A93.49,93.49,0,0,0,93.77,0Z"/></g></g></svg>